<svg height="512" viewBox="0 0 74 74" width="512" xmlns="http://www.w3.org/2000/svg"><g id="_2_PT" data-name="2 PT"><path d="m37 72c-7.511 0-12-17.8-12-35s4.489-35 12-35 12 17.8 12 35-4.489 35-12 35zm0-68c-4.73 0-10 13.553-10 33s5.27 33 10 33 10-13.553 10-33-5.27-33-10-33z"/><path d="m14.014 57.37c-4.668 0-6.614-1.617-7.422-3.034-2.242-3.936 1.658-10.698 10.433-18.1a89.054 89.054 0 0 1 8.619-6.364c1.739-1.135 3.56-2.246 5.411-3.3s3.708-2.04 5.5-2.928a91.328 91.328 0 0 1 9.719-4.136 60.613 60.613 0 0 1 7.651-2.177l.407 1.958a58.637 58.637 0 0 0 -7.393 2.1 89.4 89.4 0 0 0 -9.5 4.043c-1.759.87-3.575 1.836-5.4 2.873s-3.6 2.124-5.307 3.238a87.035 87.035 0 0 0 -8.424 6.218c-7.733 6.533-11.653 12.648-9.979 15.584.839 1.47 3.237 2.181 6.739 2l.1 2q-.601.025-1.154.025z"/><path d="m21.081 56.445-.442-1.95a59.27 59.27 0 0 0 6.42-1.889 89.289 89.289 0 0 0 9.5-4.043c1.759-.87 3.575-1.836 5.4-2.873s3.6-2.124 5.308-3.238a87.087 87.087 0 0 0 8.423-6.218c7.738-6.528 11.658-12.644 9.984-15.579-.972-1.7-3.67-2.033-5.766-2.025l-.012-2c4.771 0 6.712 1.633 7.514 3.034 2.242 3.932-1.658 10.7-10.433 18.1a89.054 89.054 0 0 1 -8.619 6.364c-1.739 1.135-3.56 2.246-5.411 3.3s-3.708 2.04-5.5 2.928a91.328 91.328 0 0 1 -9.719 4.136 61.221 61.221 0 0 1 -6.647 1.953z"/><path d="m59.97 57.356a30.534 30.534 0 0 1 -6.139-.713c-6.708-1.4-14.8-4.67-22.774-9.218s-14.916-9.841-19.535-14.9c-4.865-5.332-6.616-9.9-4.928-12.857s6.507-3.781 13.575-2.309c6.708 1.4 14.8 4.67 22.774 9.218s14.916 9.841 19.535 14.9c4.865 5.332 6.616 9.9 4.928 12.857-1.14 1.999-3.706 3.022-7.436 3.022zm-45.964-38.712c-2.907 0-4.917.685-5.675 2.013-1.186 2.082.559 6.014 4.669 10.518 4.481 4.911 11.246 10.064 19.047 14.512s15.683 7.643 22.191 9c5.969 1.243 10.243.741 11.43-1.341s-.558-6.017-4.668-10.521c-4.481-4.911-11.246-10.065-19.047-14.512s-15.683-7.643-22.191-9a28.767 28.767 0 0 0 -5.756-.669z"/><path d="m57 21.75a3.91 3.91 0 1 1 3.91-3.91 3.914 3.914 0 0 1 -3.91 3.91zm0-5.82a1.91 1.91 0 1 0 1.91 1.91 1.912 1.912 0 0 0 -1.91-1.91z"/><path d="m18 59.91a3.91 3.91 0 1 1 3.91-3.91 3.914 3.914 0 0 1 -3.91 3.91zm0-5.82a1.91 1.91 0 1 0 1.91 1.91 1.912 1.912 0 0 0 -1.91-1.91z"/><path d="m37 43a6 6 0 1 1 6-6 6.007 6.007 0 0 1 -6 6zm0-10a4 4 0 1 0 4 4 4 4 0 0 0 -4-4z"/></g></svg>