<svg height="512" viewBox="0 0 74 74" width="512" xmlns="http://www.w3.org/2000/svg"><g id="Numbers"><text fill="rgb(0,0,0)" font-family="ArialMT, Arial" font-size="18" transform="translate(31.995 -1010.544)">2<tspan x="-5.005" y="124">12</tspan><tspan x="-5.005" y="248">22</tspan><tspan x="-5.005" y="372">32</tspan><tspan x="-5.005" y="496">42</tspan><tspan x="-5.005" y="620">52</tspan><tspan x="-5.005" y="744">62</tspan><tspan x="-5.005" y="868">72</tspan><tspan x="-5.005" y="992">82</tspan><tspan x="-5.005" y="1116">92</tspan><tspan x="-10.011" y="1240">102</tspan><tspan letter-spacing="-.074em" x="-9.343" y="1364">1</tspan><tspan x="-.668" y="1364">12</tspan><tspan x="-10.011" y="1488">122</tspan><tspan x="-10.011" y="1612">132</tspan><tspan x="-10.011" y="1736">142</tspan><tspan x="-10.011" y="1860">152</tspan><tspan x="-10.011" y="1984">162</tspan><tspan x="-10.011" y="2108">172</tspan><tspan x="-10.011" y="2232">182</tspan><tspan x="-10.011" y="2356">192</tspan><tspan x="-10.011" y="2480">202</tspan><tspan x="-10.011" y="2604">212</tspan><tspan x="-10.011" y="2728">222</tspan><tspan x="-10.011" y="2852">232</tspan><tspan x="-10.011" y="2976">242</tspan><tspan x="-10.011" y="3100">252</tspan><tspan x="-10.011" y="3224">262</tspan><tspan x="-10.011" y="3348">272</tspan><tspan x="-10.011" y="3472">282</tspan><tspan x="-10.011" y="3596">292</tspan></text></g><g id="_2_PT" data-name="2 PT"><path d="m37 51.978a15.407 15.407 0 0 1 -15.39-15.39v-19.198a15.39 15.39 0 0 1 30.78 0v19.2a15.407 15.407 0 0 1 -15.39 15.388zm0-47.978a13.405 13.405 0 0 0 -13.39 13.39v19.2a13.39 13.39 0 0 0 26.78 0v-19.2a13.405 13.405 0 0 0 -13.39-13.39z"/><path d="m37 58.757a21.969 21.969 0 0 1 -21.944-21.945h2a19.944 19.944 0 1 0 39.889 0h2a21.969 21.969 0 0 1 -21.945 21.945z"/><path d="m36 57.757h2v13.243h-2z"/><path d="m26.418 70h21.164v2h-21.164z"/><path d="m28.799 12.44h16.401v2h-16.401z"/><path d="m28.799 19.97h16.401v2h-16.401z"/><path d="m28.799 27.5h16.401v2h-16.401z"/></g></svg>