<svg height="512" viewBox="0 0 74 74" width="512" xmlns="http://www.w3.org/2000/svg"><g id="Numbers"><text fill="rgb(0,0,0)" font-family="ArialMT, Arial" font-size="18" transform="translate(31.994 -638.544)">7<tspan x="-5.005" y="124">17</tspan><tspan x="-5.005" y="248">27</tspan><tspan x="-5.005" y="372">37</tspan><tspan x="-5.005" y="496">47</tspan><tspan x="-5.005" y="620">57</tspan><tspan x="-5.005" y="744">67</tspan><tspan x="-5.005" y="868">77</tspan><tspan x="-5.005" y="992">87</tspan><tspan x="-5.005" y="1116">97</tspan><tspan x="-10.011" y="1240">107</tspan><tspan letter-spacing="-.074em" x="-9.343" y="1364">1</tspan><tspan x="-.668" y="1364">17</tspan><tspan x="-10.011" y="1488">127</tspan><tspan x="-10.011" y="1612">137</tspan><tspan x="-10.011" y="1736">147</tspan><tspan x="-10.011" y="1860">157</tspan><tspan x="-10.011" y="1984">167</tspan><tspan x="-10.011" y="2108">177</tspan><tspan x="-10.011" y="2232">187</tspan><tspan x="-10.011" y="2356">197</tspan><tspan x="-10.011" y="2480">207</tspan><tspan x="-10.011" y="2604">217</tspan><tspan x="-10.011" y="2728">227</tspan><tspan x="-10.011" y="2852">237</tspan><tspan x="-10.011" y="2976">247</tspan><tspan x="-10.011" y="3100">257</tspan><tspan x="-10.011" y="3224">267</tspan><tspan x="-10.011" y="3348">277</tspan><tspan x="-10.011" y="3472">287</tspan><tspan x="-10.011" y="3596">297</tspan></text></g><g id="_2_PT" data-name="2 PT"><path d="m37.829 72c-.351 0-.7 0-1.051 0-13.798-.088-27.258-1.7-27.143-19.9.077-12.205 8.111-20.169 16.618-28.6l.274-.272 1.408 1.42-.274.272c-8.561 8.48-15.955 15.813-16.026 27.192-.095 14.902 8.765 17.788 25.156 17.888 16.355.1 25.285-2.666 25.381-17.567.072-11.38-7.229-18.8-15.683-27.4l-.269-.273 1.426-1.4.269.273c8.4 8.539 16.334 16.6 16.257 28.811-.113 17.742-12.921 19.556-26.343 19.556z"/><path d="m46.6 25.061h-.028l-19-.121a4.5 4.5 0 0 1 .057-9l19 .121a4.5 4.5 0 0 1 4.471 4.528 4.506 4.506 0 0 1 -4.5 4.472zm-19-7.121a2.5 2.5 0 0 0 -.016 5l19 .121h.016a2.5 2.5 0 0 0 2.5-2.484l1 .006-1-.006a2.5 2.5 0 0 0 -2.483-2.516l-19-.121z"/><path d="m46.827 17.387-1.888-.661 3.19-9.117a8.515 8.515 0 0 1 -2.736 1.016 10.031 10.031 0 0 1 -7.679-2.108 13.671 13.671 0 0 0 -14.549-.879l5.019 10.882-1.816.838-5.398-11.708a1 1 0 0 1 .353-1.25c.087-.058 8.781-5.733 17.549.484a8.146 8.146 0 0 0 6.145 1.776 7.673 7.673 0 0 0 4.5-2.906 1 1 0 0 1 1.771.894z"/><path d="m36.9 61h-.048a6.773 6.773 0 0 1 -6.959-6.544l2 .013a4.775 4.775 0 0 0 4.966 4.531h.041a4.771 4.771 0 0 0 4.993-4.468 4.254 4.254 0 0 0 -1.411-3.162 5.252 5.252 0 0 0 -3.564-1.37 6.772 6.772 0 0 1 -6.959-6.544 6.768 6.768 0 0 1 6.992-6.456h.049a6.774 6.774 0 0 1 6.96 6.544l-2-.013a4.776 4.776 0 0 0 -4.973-4.531h-.036a4.771 4.771 0 0 0 -4.992 4.468 4.776 4.776 0 0 0 4.972 4.532 7.245 7.245 0 0 1 4.907 1.9 6.228 6.228 0 0 1 2.051 4.64 6.768 6.768 0 0 1 -6.989 6.46z"/><path d="m22.924 48h28v2h-28z" transform="matrix(.006 -1 1 .006 -12.309 85.612)"/></g></svg>