<svg height="512" viewBox="0 0 74 74" width="512" xmlns="http://www.w3.org/2000/svg"><g id="Numbers"><text fill="rgb(0,0,0)" font-family="ArialMT, Arial" font-size="18" transform="translate(31.995 -142.544)">4<tspan x="-5.005" y="124">14</tspan><tspan x="-5.005" y="248">24</tspan><tspan x="-5.005" y="372">34</tspan><tspan x="-5.005" y="496">44</tspan><tspan x="-5.005" y="620">54</tspan><tspan x="-5.005" y="744">64</tspan><tspan x="-5.005" y="868">74</tspan><tspan x="-5.005" y="992">84</tspan><tspan x="-5.005" y="1116">94</tspan><tspan x="-10.011" y="1240">104</tspan><tspan letter-spacing="-.074em" x="-9.343" y="1364">1</tspan><tspan x="-.668" y="1364">14</tspan><tspan x="-10.011" y="1488">124</tspan><tspan x="-10.011" y="1612">134</tspan><tspan x="-10.011" y="1736">144</tspan><tspan x="-10.011" y="1860">154</tspan><tspan x="-10.011" y="1984">164</tspan><tspan x="-10.011" y="2108">174</tspan><tspan x="-10.011" y="2232">184</tspan><tspan x="-10.011" y="2356">194</tspan><tspan x="-10.011" y="2480">204</tspan><tspan x="-10.011" y="2604">214</tspan><tspan x="-10.011" y="2728">224</tspan><tspan x="-10.011" y="2852">234</tspan><tspan x="-10.011" y="2976">244</tspan><tspan x="-10.011" y="3100">254</tspan><tspan x="-10.011" y="3224">264</tspan><tspan x="-10.011" y="3348">274</tspan><tspan x="-10.011" y="3472">284</tspan><tspan x="-10.011" y="3596">294</tspan></text></g><g id="_2_PT" data-name="2 PT"><path d="m12 67a1 1 0 0 1 -1-1v-9h-4a5.006 5.006 0 0 1 -5-5v-32a5.006 5.006 0 0 1 5-5h52a5.006 5.006 0 0 1 5 5v32a5.006 5.006 0 0 1 -5 5h-34.638l-11.722 9.768a1 1 0 0 1 -.64.232zm-5-50a3 3 0 0 0 -3 3v32a3 3 0 0 0 3 3h5a1 1 0 0 1 1 1v7.865l10.36-8.633a1 1 0 0 1 .64-.232h35a3 3 0 0 0 3-3v-32a3 3 0 0 0 -3-3z"/><path d="m67 48h-4v-2h4a3 3 0 0 0 3-3v-31a3 3 0 0 0 -3-3h-51a3 3 0 0 0 -3 3v4h-2v-4a5.006 5.006 0 0 1 5-5h51a5.006 5.006 0 0 1 5 5v31a5.006 5.006 0 0 1 -5 5z"/><path d="m9 23h35.745v2h-35.745z"/><path d="m9 31h48v2h-48z"/><path d="m9 39h48v2h-48z"/><path d="m9 47h48v2h-48z"/></g></svg>