<svg height="512" viewBox="0 0 74 74" width="512" xmlns="http://www.w3.org/2000/svg"><g id="Numbers"><text fill="rgb(0,0,0)" font-family="ArialMT, Arial" font-size="18" transform="translate(31.994 -18.544)">9<tspan x="-5.005" y="124">19</tspan><tspan x="-5.005" y="248">29</tspan><tspan x="-5.005" y="372">39</tspan><tspan x="-5.005" y="496">49</tspan><tspan x="-5.005" y="620">59</tspan><tspan x="-5.005" y="744">69</tspan><tspan x="-5.005" y="868">79</tspan><tspan x="-5.005" y="992">89</tspan><tspan x="-5.005" y="1116">99</tspan><tspan x="-10.011" y="1240">109</tspan><tspan letter-spacing="-.074em" x="-9.343" y="1364">1</tspan><tspan x="-.668" y="1364">19</tspan><tspan x="-10.011" y="1488">129</tspan><tspan x="-10.011" y="1612">139</tspan><tspan x="-10.011" y="1736">149</tspan><tspan x="-10.011" y="1860">159</tspan><tspan x="-10.011" y="1984">169</tspan><tspan x="-10.011" y="2108">179</tspan><tspan x="-10.011" y="2232">189</tspan><tspan x="-10.011" y="2356">199</tspan><tspan x="-10.011" y="2480">209</tspan><tspan x="-10.011" y="2604">219</tspan><tspan x="-10.011" y="2728">229</tspan><tspan x="-10.011" y="2852">239</tspan><tspan x="-10.011" y="2976">249</tspan><tspan x="-10.011" y="3100">259</tspan><tspan x="-10.011" y="3224">269</tspan><tspan x="-10.011" y="3348">279</tspan><tspan x="-10.011" y="3472">289</tspan><tspan x="-10.011" y="3596">299</tspan></text></g><g id="_2_PT" data-name="2 PT"><path d="m37 72a30 30 0 1 1 30-30 30.034 30.034 0 0 1 -30 30zm0-58a28 28 0 1 0 28 28 28.031 28.031 0 0 0 -28-28z"/><path d="m37 66a24 24 0 1 1 24-24 24.027 24.027 0 0 1 -24 24zm0-46a22 22 0 1 0 22 22 22.025 22.025 0 0 0 -22-22z"/><path d="m46 9h-18a2 2 0 0 1 -2-2v-3a2 2 0 0 1 2-2h18a2 2 0 0 1 2 2v3a2 2 0 0 1 -2 2zm0-5h-18v3h18z"/><path d="m40 8h2v5.28h-2z"/><path d="m32 8h2v5.28h-2z"/><path d="m58.235 22.136-1.51-1.312 2.939-3.38a1.5 1.5 0 0 0 -.2-2.094 1.512 1.512 0 0 0 -1.1-.342 1.48 1.48 0 0 0 -1.013.53l-2.944 3.388-1.507-1.312 2.93-3.37a3.45 3.45 0 0 1 2.357-1.227 3.5 3.5 0 0 1 3.007 5.722z"/><path d="m37 46a4 4 0 1 1 4-4 4 4 0 0 1 -4 4zm0-6a2 2 0 1 0 2 2 2 2 0 0 0 -2-2z"/><path d="m36 27h2v12h-2z"/><path d="m24 41h10v2h-10z"/></g></svg>