<svg height="512" viewBox="0 0 74 74" width="512" xmlns="http://www.w3.org/2000/svg"><g id="Numbers"><text fill="rgb(0,0,0)" font-family="ArialMT, Arial" font-size="18" transform="translate(31.994 -1010.544)">9<tspan x="-5.005" y="124">19</tspan><tspan x="-5.005" y="248">29</tspan><tspan x="-5.005" y="372">39</tspan><tspan x="-5.005" y="496">49</tspan><tspan x="-5.005" y="620">59</tspan><tspan x="-5.005" y="744">69</tspan><tspan x="-5.005" y="868">79</tspan><tspan x="-5.005" y="992">89</tspan><tspan x="-5.005" y="1116">99</tspan><tspan x="-10.011" y="1240">109</tspan><tspan letter-spacing="-.074em" x="-9.343" y="1364">1</tspan><tspan x="-.668" y="1364">19</tspan><tspan x="-10.011" y="1488">129</tspan><tspan x="-10.011" y="1612">139</tspan><tspan x="-10.011" y="1736">149</tspan><tspan x="-10.011" y="1860">159</tspan><tspan x="-10.011" y="1984">169</tspan><tspan x="-10.011" y="2108">179</tspan><tspan x="-10.011" y="2232">189</tspan><tspan x="-10.011" y="2356">199</tspan><tspan x="-10.011" y="2480">209</tspan><tspan x="-10.011" y="2604">219</tspan><tspan x="-10.011" y="2728">229</tspan><tspan x="-10.011" y="2852">239</tspan><tspan x="-10.011" y="2976">249</tspan><tspan x="-10.011" y="3100">259</tspan><tspan x="-10.011" y="3224">269</tspan><tspan x="-10.011" y="3348">279</tspan><tspan x="-10.011" y="3472">289</tspan><tspan x="-10.011" y="3596">299</tspan></text></g><g id="_2_PT" data-name="2 PT"><path d="m16 65a1 1 0 0 1 -1-1v-11h-4a9.01 9.01 0 0 1 -9-9v-26a9.01 9.01 0 0 1 9-9h52a9.01 9.01 0 0 1 9 9v26a9.01 9.01 0 0 1 -9 9h-33.609l-12.712 11.735a1 1 0 0 1 -.679.265zm-5-54a7.008 7.008 0 0 0 -7 7v26a7.008 7.008 0 0 0 7 7h5a1 1 0 0 1 1 1v9.716l11.321-10.451a1 1 0 0 1 .679-.265h34a7.008 7.008 0 0 0 7-7v-26a7.008 7.008 0 0 0 -7-7z"/><path d="m57 37a6 6 0 1 1 6-6 6.007 6.007 0 0 1 -6 6zm0-10a4 4 0 1 0 4 4 4 4 0 0 0 -4-4z"/><path d="m37 37a6 6 0 1 1 6-6 6.007 6.007 0 0 1 -6 6zm0-10a4 4 0 1 0 4 4 4 4 0 0 0 -4-4z"/><path d="m17 37a6 6 0 1 1 6-6 6.007 6.007 0 0 1 -6 6zm0-10a4 4 0 1 0 4 4 4 4 0 0 0 -4-4z"/></g></svg>