<svg height="512" viewBox="0 0 74 74" width="512" xmlns="http://www.w3.org/2000/svg"><g id="Numbers"><text fill="rgb(0,0,0)" font-family="ArialMT, Arial" font-size="18" transform="translate(30.995 -514.544)">1<tspan letter-spacing="-.074em" x="-4.337" y="124">1</tspan><tspan x="4.337" y="124">1</tspan><tspan x="-5.005" y="248">21</tspan><tspan x="-5.005" y="372">31</tspan><tspan x="-5.005" y="496">41</tspan><tspan x="-5.005" y="620">51</tspan><tspan x="-5.005" y="744">61</tspan><tspan x="-5.005" y="868">71</tspan><tspan x="-5.005" y="992">81</tspan><tspan x="-5.005" y="1116">91</tspan><tspan x="-10.011" y="1240">101</tspan><tspan letter-spacing="-.074em" x="-8.675" y="1364">11</tspan><tspan x="8.675" y="1364">1</tspan><tspan x="-10.011" y="1488">121</tspan><tspan x="-10.011" y="1612">131</tspan><tspan x="-10.011" y="1736">141</tspan><tspan x="-10.011" y="1860">151</tspan><tspan x="-10.011" y="1984">161</tspan><tspan x="-10.011" y="2108">171</tspan><tspan x="-10.011" y="2232">181</tspan><tspan x="-10.011" y="2356">191</tspan><tspan x="-10.011" y="2480">201</tspan><tspan x="-9.343" y="2604">2</tspan><tspan letter-spacing="-.074em" x=".668" y="2604">1</tspan><tspan x="9.343" y="2604">1</tspan><tspan x="-10.011" y="2728">221</tspan><tspan x="-10.011" y="2852">231</tspan><tspan x="-10.011" y="2976">241</tspan><tspan x="-10.011" y="3100">251</tspan><tspan x="-10.011" y="3224">261</tspan><tspan x="-10.011" y="3348">271</tspan><tspan x="-10.011" y="3472">281</tspan><tspan x="-10.011" y="3596">291</tspan></text></g><g id="_2_PT" data-name="2 PT"><path d="m32 8h10v2h-10z"/><path d="m71 72h-68a1 1 0 0 1 -1-1v-62a1 1 0 0 1 1-1h7v2h-6v60h66v-60h-6v-2h7a1 1 0 0 1 1 1v62a1 1 0 0 1 -1 1z"/><path d="m16 8h10v2h-10z"/><path d="m48 8h10v2h-10z"/><path d="m62 16h-2a3 3 0 0 1 -3-3v-8a3 3 0 0 1 3-3h2a3 3 0 0 1 3 3v8a3 3 0 0 1 -3 3zm-2-12a1 1 0 0 0 -1 1v8a1 1 0 0 0 1 1h2a1 1 0 0 0 1-1v-8a1 1 0 0 0 -1-1z"/><path d="m46 16h-2a3 3 0 0 1 -3-3v-8a3 3 0 0 1 3-3h2a3 3 0 0 1 3 3v8a3 3 0 0 1 -3 3zm-2-12a1 1 0 0 0 -1 1v8a1 1 0 0 0 1 1h2a1 1 0 0 0 1-1v-8a1 1 0 0 0 -1-1z"/><path d="m30 16h-2a3 3 0 0 1 -3-3v-8a3 3 0 0 1 3-3h2a3 3 0 0 1 3 3v8a3 3 0 0 1 -3 3zm-2-12a1 1 0 0 0 -1 1v8a1 1 0 0 0 1 1h2a1 1 0 0 0 1-1v-8a1 1 0 0 0 -1-1z"/><path d="m14 16h-2a3 3 0 0 1 -3-3v-8a3 3 0 0 1 3-3h2a3 3 0 0 1 3 3v8a3 3 0 0 1 -3 3zm-2-12a1 1 0 0 0 -1 1v8a1 1 0 0 0 1 1h2a1 1 0 0 0 1-1v-8a1 1 0 0 0 -1-1z"/><path d="m3 23h68v2h-68z"/><path d="m33 39h-8a1 1 0 0 1 -1-1v-8a1 1 0 0 1 1-1h8a1 1 0 0 1 1 1v8a1 1 0 0 1 -1 1zm-7-2h6v-6h-6z"/><path d="m49 39h-8a1 1 0 0 1 -1-1v-8a1 1 0 0 1 1-1h8a1 1 0 0 1 1 1v8a1 1 0 0 1 -1 1zm-7-2h6v-6h-6z"/><path d="m65 39h-8a1 1 0 0 1 -1-1v-8a1 1 0 0 1 1-1h8a1 1 0 0 1 1 1v8a1 1 0 0 1 -1 1zm-7-2h6v-6h-6z"/><path d="m17 53h-8a1 1 0 0 1 -1-1v-8a1 1 0 0 1 1-1h8a1 1 0 0 1 1 1v8a1 1 0 0 1 -1 1zm-7-2h6v-6h-6z"/><path d="m33 53h-8a1 1 0 0 1 -1-1v-8a1 1 0 0 1 1-1h8a1 1 0 0 1 1 1v8a1 1 0 0 1 -1 1zm-7-2h6v-6h-6z"/><path d="m49 53h-8a1 1 0 0 1 -1-1v-8a1 1 0 0 1 1-1h8a1 1 0 0 1 1 1v8a1 1 0 0 1 -1 1zm-7-2h6v-6h-6z"/><path d="m65 53h-8a1 1 0 0 1 -1-1v-8a1 1 0 0 1 1-1h8a1 1 0 0 1 1 1v8a1 1 0 0 1 -1 1zm-7-2h6v-6h-6z"/><path d="m17 67h-8a1 1 0 0 1 -1-1v-8a1 1 0 0 1 1-1h8a1 1 0 0 1 1 1v8a1 1 0 0 1 -1 1zm-7-2h6v-6h-6z"/><path d="m33 67h-8a1 1 0 0 1 -1-1v-8a1 1 0 0 1 1-1h8a1 1 0 0 1 1 1v8a1 1 0 0 1 -1 1zm-7-2h6v-6h-6z"/><path d="m49 67h-8a1 1 0 0 1 -1-1v-8a1 1 0 0 1 1-1h8a1 1 0 0 1 1 1v8a1 1 0 0 1 -1 1zm-7-2h6v-6h-6z"/></g></svg>