<svg height="512" viewBox="0 0 74 74" width="512" xmlns="http://www.w3.org/2000/svg"><g id="Numbers"><text fill="rgb(0,0,0)" font-family="ArialMT, Arial" font-size="18" transform="translate(31.995 -266.544)">8<tspan x="-5.005" y="124">18</tspan><tspan x="-5.005" y="248">28</tspan><tspan x="-5.005" y="372">38</tspan><tspan x="-5.005" y="496">48</tspan><tspan x="-5.005" y="620">58</tspan><tspan x="-5.005" y="744">68</tspan><tspan x="-5.005" y="868">78</tspan><tspan x="-5.005" y="992">88</tspan><tspan x="-5.005" y="1116">98</tspan><tspan x="-10.011" y="1240">108</tspan><tspan letter-spacing="-.074em" x="-9.343" y="1364">1</tspan><tspan x="-.668" y="1364">18</tspan><tspan x="-10.011" y="1488">128</tspan><tspan x="-10.011" y="1612">138</tspan><tspan x="-10.011" y="1736">148</tspan><tspan x="-10.011" y="1860">158</tspan><tspan x="-10.011" y="1984">168</tspan><tspan x="-10.011" y="2108">178</tspan><tspan x="-10.011" y="2232">188</tspan><tspan x="-10.011" y="2356">198</tspan><tspan x="-10.011" y="2480">208</tspan><tspan x="-10.011" y="2604">218</tspan><tspan x="-10.011" y="2728">228</tspan><tspan x="-10.011" y="2852">238</tspan><tspan x="-10.011" y="2976">248</tspan><tspan x="-10.011" y="3100">258</tspan><tspan x="-10.011" y="3224">268</tspan><tspan x="-10.011" y="3348">278</tspan><tspan x="-10.011" y="3472">288</tspan><tspan x="-10.011" y="3596">298</tspan></text></g><g id="_2_PT" data-name="2 PT"><path d="m27.04 52.066a25.033 25.033 0 1 1 17.7-42.73 25.026 25.026 0 0 1 -17.7 42.73zm0-48.053a23.027 23.027 0 1 0 16.29 6.737 22.966 22.966 0 0 0 -16.29-6.737z"/><path d="m27.04 46.605a19.565 19.565 0 1 1 13.841-5.724 19.512 19.512 0 0 1 -13.841 5.724zm0-37.131a17.566 17.566 0 1 0 12.427 5.139 17.455 17.455 0 0 0 -12.427-5.139z"/><path d="m45.582 52.763a1 1 0 0 1 -.707-.293l-4.944-4.944 1.414-1.414 4.237 4.237 4.767-4.767-4.237-4.237 1.414-1.414 4.944 4.944a1 1 0 0 1 0 1.414l-6.181 6.181a1 1 0 0 1 -.707.293z"/><path d="m63.352 72a8.594 8.594 0 0 1 -6.115-2.533l-14.679-14.679a1 1 0 0 1 0-1.414l10.816-10.816a1 1 0 0 1 1.414 0l14.679 14.679a8.648 8.648 0 0 1 -6.115 14.763zm-18.673-17.919 13.971 13.972a6.648 6.648 0 1 0 9.4-9.4l-13.969-13.974z"/></g></svg>