<svg height="512" viewBox="0 0 74 74" width="512" xmlns="http://www.w3.org/2000/svg"><g id="Numbers"><text fill="rgb(0,0,0)" font-family="ArialMT, Arial" font-size="18" transform="translate(26.989 -18.544)">10<tspan x="0" y="124">20</tspan><tspan x="0" y="248">30</tspan><tspan x="0" y="372">40</tspan><tspan x="0" y="496">50</tspan><tspan x="0" y="620">60</tspan><tspan x="0" y="744">70</tspan><tspan x="0" y="868">80</tspan><tspan x="0" y="992">90</tspan><tspan x="-5.005" y="1116">100</tspan><tspan letter-spacing="-.074em" x="-4.337" y="1240">1</tspan><tspan x="4.337" y="1240">10</tspan><tspan x="-5.005" y="1364">120</tspan><tspan x="-5.005" y="1488">130</tspan><tspan x="-5.005" y="1612">140</tspan><tspan x="-5.005" y="1736">150</tspan><tspan x="-5.005" y="1860">160</tspan><tspan x="-5.005" y="1984">170</tspan><tspan x="-5.005" y="2108">180</tspan><tspan x="-5.005" y="2232">190</tspan><tspan x="-5.005" y="2356">200</tspan><tspan x="-5.005" y="2480">210</tspan><tspan x="-5.005" y="2604">220</tspan><tspan x="-5.005" y="2728">230</tspan><tspan x="-5.005" y="2852">240</tspan><tspan x="-5.005" y="2976">250</tspan><tspan x="-5.005" y="3100">260</tspan><tspan x="-5.005" y="3224">270</tspan><tspan x="-5.005" y="3348">280</tspan><tspan x="-5.005" y="3472">290</tspan><tspan x="-5.005" y="3596">300</tspan></text></g><g id="_2_PT" data-name="2 PT"><path d="m45.83 72.01h-42.66a1 1 0 0 1 -1-1v-.69a22.307 22.307 0 0 1 16.8-21.639l.494 1.938a20.306 20.306 0 0 0 -15.292 19.391h40.656a20.356 20.356 0 0 0 -15.295-19.391l.494-1.938a22.357 22.357 0 0 1 16.803 21.639v.69a1 1 0 0 1 -1 1z"/><path d="m24.5 52a12 12 0 1 1 12-12 12.013 12.013 0 0 1 -12 12zm0-22a10 10 0 1 0 10 10 10.011 10.011 0 0 0 -10-10z"/><path d="m38.68 54.307-1.619-1.174a19.44 19.44 0 0 1 10.882-7.412l.5 1.938a17.433 17.433 0 0 0 -9.763 6.648z"/><path d="m71 66h-25.84v-2h24.84a17.308 17.308 0 0 0 -13-16.341l.492-1.938a19.308 19.308 0 0 1 14.508 18.689v.59a1 1 0 0 1 -1 1z"/><path d="m52.717 48.848a10.429 10.429 0 1 1 10.429-10.429 10.441 10.441 0 0 1 -10.429 10.429zm0-18.857a8.429 8.429 0 1 0 8.429 8.429 8.439 8.439 0 0 0 -8.429-8.43z"/><path d="m30 27a1 1 0 0 1 -1-1v-4h-5a5.006 5.006 0 0 1 -5-5v-10a5.006 5.006 0 0 1 5-5h21a5.006 5.006 0 0 1 5 5v3.28h-2v-3.28a3 3 0 0 0 -3-3h-21a3 3 0 0 0 -3 3v10a3 3 0 0 0 3 3h6a1 1 0 0 1 1 1v2.865l4.359-3.633a1 1 0 0 1 .641-.232h4.42v2h-4.058l-5.722 4.768a1 1 0 0 1 -.64.232z"/><path d="m53.01 27a1 1 0 0 1 -.437-.1l-2.873-1.395a8.352 8.352 0 0 1 -2.7.445 8.484 8.484 0 1 1 6.721-3.325l.285 3.288a1 1 0 0 1 -1 1.086zm-3.26-3.58a1 1 0 0 1 .437.1l1.675.812-.169-1.932a1 1 0 0 1 .235-.736 6.463 6.463 0 1 0 -4.928 2.286 6.376 6.376 0 0 0 2.379-.459 1 1 0 0 1 .371-.071z"/><path d="m24 7h10v2h-10z"/><path d="m24 12h2v3h-2z"/><path d="m29 12h2v3h-2z"/><path d="m34 12h2v3h-2z"/></g></svg>